Patient4_TMGait_0pt7_02_right_46_EMG.mot
version=1
nRows=16
nColumns=33
inDegrees=no
endheader
time	1LAddLong	2LGlutMax	3LGlutMed	4LIliopsoas	5LSemiMemb	6LBicFemLong	7LRecFem	8LVastMed	9LVastLat	10LGasMed	11LTibAnt	12lTibPost	13LPeroneusLong	14LSol	15LExtDigLong	16LFlexDigLong	17RAddLong	18RGlutMax	19RGlutMed	20RIliopsoas	21RSemiMemb	22RBicFemLong	23RRecFem	24RVastMed	25RVastLat	26RGasMed	27RTibAnt	28RTibPost	29RPeroneusLong	30RSol	31RExtDigLong	32RFlexDigLong
53.285	0.004272	-0.17273	-0.084381	-0.000305	-0.041046	0.077515	0.080566	-0.019379	-0.020599	-0.10849	0.059357	0.012817	0.036926	0.046997	0.011139	-0.009003	0.027161	-0.011444	0.24063	0.012817	0.074158	0.064697	0.019989	-0.031586	0.029449	-0.015564	-0.23209	-0.005341	-0.057373	-0.009308	-0.00061	-0.012512
53.286	-0.006104	-0.16556	-0.085297	0.001221	-0.077209	0.068512	0.076447	-0.015564	-0.033569	-0.069733	0.048828	0.024872	-0.028076	0.10269	-0.049438	-0.004883	-0.040894	-0.020599	-0.090179	0.03418	-0.16998	0.17319	-0.023193	0.035553	0.035706	-0.014038	-0.22812	-0.001373	0.048065	-0.00885	-0.001526	-0.01709
53.287	0.005341	-0.13718	-0.059204	0.00473	-0.076599	0.04425	0.09491	-0.005188	0.010681	-0.035706	0.010986	0.035706	0.006104	0.050659	-0.14358	-0.005341	-0.040894	-0.000305	0.2417	-0.18723	-0.20523	0.10193	0.03067	0.064392	0.027313	-0.008698	-0.22568	-0.000763	0.0737	-0.12375	0.00061	0.002899
53.288	0.003204	-0.09964	-0.052948	0.002289	-0.035553	0.072174	0.14603	-0.005493	0.061798	0.067902	-0.006714	0.018463	0.032806	-0.12909	-0.087433	-0.006714	-0.030365	-0.03479	0.57602	-0.26367	-0.078888	0.04364	0.006409	0.015411	0.019226	-0.013275	-0.31494	-0.001831	0.06134	-0.14099	0.002289	0.003357
53.289	-0.003357	-0.10025	-0.038147	0.003662	0.062561	0.023804	0.15289	-0.00412	0.063629	0.32654	-0.010681	0.012054	0.04364	-0.2359	-0.033112	-0.025635	-0.011444	-0.027313	0.60501	-0.22736	0.029297	0.012512	-0.018768	0.000458	0.032349	-0.01709	-0.16266	-0.002899	0.059814	-0.046692	0.003204	0.000153
53.29	-0.004883	-0.050507	-0.002441	0.013733	0.053864	-0.036011	0.13901	-0.002747	0.023499	0.31494	0.003967	0.018005	0.032959	-0.19134	0.00412	-0.034485	-0.013123	-0.003052	0.40665	-0.068512	0.034027	0.026855	0.001221	-0.018005	0.029144	-0.016479	0.060425	-0.002747	-0.16647	0.034027	-0.001831	-0.003204
53.291	-0.014648	-0.091095	-0.066071	0.010834	-0.036011	-0.034637	0.12787	0.003357	-0.000153	0.27618	0.019379	0.015411	0.00473	-0.004883	0.013275	-0.038605	0.003357	0.00946	0.1152	0.13046	0.010986	0.038452	-0.009003	-0.080261	0.028534	-0.020142	0.011292	0.005798	-0.32501	0.027008	0.002441	-0.001068
53.292	-0.024872	-0.097809	-0.053558	0.008392	-0.12528	-0.014343	0.1265	0.003815	-0.004425	0.17685	0.014191	0.0177	-0.016937	0.061035	0.006104	0.006561	0.013428	0.004272	-0.21683	0.2533	-0.012512	0.057068	-0.030975	-0.063629	0.031128	-0.020752	0.10025	-0.002899	-0.17929	0.10208	0.000916	-0.006714
53.293	-0.015869	-0.094757	-0.045166	-0.000153	-0.12909	-0.03006	0.12497	0.005188	0.015411	0.074921	-0.001984	0.01236	0.014038	-0.036163	0.005188	0.024567	0.02533	-0.032501	-0.45151	0.29251	-0.10071	0.067139	-0.028534	-0.083618	0.045319	-0.014496	0.15228	-0.003052	0.47958	0.073395	0.001984	-0.007172
53.294	0.007782	-0.10376	-0.002136	-0.010681	-0.020752	-0.14435	0.13428	-0.014343	0.036163	-0.23239	-0.020905	0.014496	0.00885	-0.097046	0.034332	-0.017242	0.032043	-0.01236	-0.31143	0.10254	-0.12833	0.04776	-0.038452	-0.087128	0.035095	-0.011597	0.050812	-0.001984	0.42572	0.031738	0.000153	-0.007172
53.295	0.039978	-0.075378	0.004272	0.020905	0.036469	-0.19898	0.13611	-0.024109	0.026398	-0.34103	-0.005341	0.021057	-0.018768	-0.12451	0.034637	-0.027008	0.029449	0.045471	-0.26382	-0.009613	-0.088196	0.083618	-0.042419	-0.074463	0.026245	-0.022888	0.046234	-0.004425	0.22156	-0.001678	0.003204	-0.009918
53.296	0.028229	-0.072784	0.007019	0.011749	0.065765	-0.16007	0.1828	0.003815	-0.002747	-0.31998	0.008087	0.015106	0.040436	-0.09491	0.033417	-0.022888	-0.000458	0.088043	-0.012054	0.025024	0.063477	0.13046	-0.029297	-0.079498	0.052643	-0.010986	0.10956	-0.001526	0.15213	0.000916	-0.001984	-0.009308
53.297	0.042419	-0.061035	-0.005493	0.014191	0.11505	0.066986	0.23865	-0.014648	-0.003967	0.007935	0.013123	0.017242	0.031281	0.056305	0.025787	0.015717	-0.019684	0.088959	0.15427	0.075531	0.052795	0.043335	-0.028076	-0.037384	0.049133	-0.011444	0.14847	-0.007172	0.10819	0.014038	-0.002136	-0.002747
53.298	0.041962	-0.096741	-0.054932	-0.006256	0.11505	0.31967	0.28122	-0.008087	-0.037689	0.28137	0.020905	0.014496	0.06134	0.24796	0.03006	0.015869	-0.008545	-0.011749	-0.21225	0.046692	0.099792	0.006104	-0.035553	-0.04715	0.052185	-0.011444	0.18738	-0.003052	-0.018768	0.013428	-0.000458	-0.00473
53.299	0.013275	-0.11673	-0.063171	0.014648	0.089722	0.42267	0.27908	0.005951	-0.057526	0.23392	0.015411	0.017395	0.041809	0.16632	0.012817	0.013428	0.004578	-0.042114	-0.33737	-0.050201	0.12009	-0.080719	-0.039978	-0.015717	0.050812	-0.008392	0.17716	-0.002136	0.022736	-0.013428	-0.005188	-0.018616
53.3	0.014038	-0.099487	-0.008087	0.035095	0.048523	0.3183	0.21454	0.018311	-0.06546	0.38086	-0.003662	0.006104	0.026855	0.002594	0.005646	-0.053864	0.014954	-0.015259	-0.56229	-0.1033	0.068512	-0.082397	-0.051422	-0.009766	0.039063	-0.018768	0.14175	-0.002594	0.10986	-0.046692	-0.00061	-0.010223
